# xmcd
#
# Track frame offsets:
#	150
#	13640
#	45646
#	61730
#	73138
#	84407
#	97598
#	110721
#	121781
#	135562
#	160084
#	171189
#	183774
#	197971
#	211833
#	222685
#	233486
#	249929
#
# Disc length: 3488
#
# Revision: 1
# Processed by: cddbd v1.5.1PL0 Copyright (c) Steve Scherf et al.
# Submitted via: CDex 1.51
# Normalized: r0:DSETVAR1,TDELIM( - ),TSWAP
#
DISCID=ec0d9e12
DTITLE=Various Artist - All Blues
DYEAR=1999
DGENRE=Blues
TTITLE0=T-Bone Walker - Back On The Scene
TTITLE1=Santana - Every Day I Have The Blues
TTITLE2=B.B. King - It's My Own Fault Baby
TTITLE3=Muddy Waters - Goin' Home
TTITLE4=John Lee Hooker - Boom Boom
TTITLE5=Howling Wolf - Highway 49
TTITLE6=Elmore James - Dust My Broom
TTITLE7=Ray Charles - A Sentimental Blues
TTITLE8=Andy Lloyd - I Just Want To Make Love To You
TTITLE9=Big Joe Turner - Shake, Rattle and Roll
TTITLE10=The James Cotton Blues Band - Good Time Charlie
TTITLE11=Johnny Winter - Leavin' Blues
TTITLE12=John Mayall - Why Worry
TTITLE13=José Feliciano - Light My Fire
TTITLE14=Lonnie Youngblood feat. Jimi Hendrix - Goodbye, Bessie Mae
TTITLE15=Carl Perkins - Dixie Friend
TTITLE16=The Animals - Don't You Leave Me Baby
TTITLE17=Canned Heat - Got My Mojo Working
EXTD=YEAR: 1999
EXTT0=
EXTT1=
EXTT2=
EXTT3=
EXTT4=
EXTT5=
EXTT6=
EXTT7=
EXTT8=
EXTT9=
EXTT10=
EXTT11=
EXTT12=
EXTT13=
EXTT14=
EXTT15=
EXTT16=
EXTT17=
PLAYORDER=
